<?xml version="1.0" encoding="utf-8"?>
<!-- Generator: Adobe Illustrator 19.1.1, SVG Export Plug-In . SVG Version: 6.00 Build 0)  -->
<svg version="1.1" xmlns="http://www.w3.org/2000/svg" xmlns:xlink="http://www.w3.org/1999/xlink" x="0px" y="0px"
	 viewBox="0 0 232 80.6" style="enable-background:new 0 0 232 80.6;" xml:space="preserve">
<style type="text/css">
	.Schlagschatten{fill:none;}
	.Abgerundete_x0020_Ecken_x0020_2_x0020_Pt_x002E_{fill:#FFFFFF;stroke:#1D1D1B;stroke-miterlimit:10;}
	.Interaktiv_x0020_X_x0020_spiegeln{fill:none;}
	.Weich_x0020_abgeflachte_x0020_Kante{fill:url(#SVGID_1_);}
	.Laub_GS{fill:#FFDC00;}
	.Pompadour_GS{fill-rule:evenodd;clip-rule:evenodd;fill:#51ADE1;}
	.st0{fill:#159A34;}
</style>
<linearGradient id="SVGID_1_" gradientUnits="userSpaceOnUse" x1="0" y1="0" x2="0.7071" y2="0.7071">
	<stop  offset="0" style="stop-color:#E6E6EA"/>
	<stop  offset="0.1761" style="stop-color:#E2E2E6"/>
	<stop  offset="0.3567" style="stop-color:#D6D6DA"/>
	<stop  offset="0.5393" style="stop-color:#C1C2C5"/>
	<stop  offset="0.7233" style="stop-color:#A5A6A8"/>
	<stop  offset="0.9067" style="stop-color:#808384"/>
	<stop  offset="1" style="stop-color:#6B6E6E"/>
</linearGradient>
<g id="gruene_elemente">
</g>
<g id="schwarze_elemente">
	<g>
		<g>
			<circle class="st0" cx="29.7" cy="29.7" r="29.7"/>
			<polygon class="st0" points="102.1,72.9 105,69.4 104.2,69.4 101.6,72.6 100.2,72.6 100.2,66.2 99.5,66.2 99.5,77.4 100.2,77.4 
				100.2,73.2 101.6,73.2 104.5,77.4 105.3,77.4 102.1,72.9 			"/>
			<path class="st0" d="M88.4,69.2c-2,0-3.9,1.5-3.9,4.2c0,2.5,1.9,4.2,4.1,4.2c1.7,0,2.8-1.1,2.8-1.1l-0.4-0.6c0,0-0.9,1-2.5,1
				c-1.8,0-3.4-1.3-3.4-3.6h6.4c0,0,0-0.3,0-0.4C91.7,70.9,90.6,69.2,88.4,69.2z M85.3,72.7c0.3-1.9,1.6-2.8,3.1-2.8
				c1.3,0,2.5,0.9,2.6,2.8H85.3z"/>
			<path class="st0" d="M60.4,69.2c-2.3,0-4.1,1.8-4.1,4.1c0,2.4,1.8,4.2,4.1,4.2c2.3,0,4.1-1.8,4.1-4.2
				C64.6,71,62.7,69.2,60.4,69.2z M60.4,76.9c-1.9,0-3.4-1.5-3.4-3.6c0-2,1.5-3.5,3.4-3.5s3.4,1.5,3.4,3.5
				C63.9,75.4,62.3,76.9,60.4,76.9z"/>
			<path class="st0" d="M51.5,75.3c-0.2,0.5-0.4,1.3-0.4,1.3h0c0,0-0.2-0.8-0.4-1.3l-3.4-9h-0.7l4.2,11.2h0.8l4.2-11.2h-0.7
				L51.5,75.3z"/>
			<path class="st0" d="M67.5,71.6L67.5,71.6c0,0,0-0.3,0-0.7v-1.5h-0.7v8h0.7V74c0-0.5,0.1-1.1,0.2-1.7c0.4-1.2,1.1-2.2,2.4-2.2
				c0.2,0,0.4,0,0.4,0v-0.7c0,0-0.2,0-0.5,0C68.8,69.4,67.9,70.4,67.5,71.6z"/>
			<path class="st0" d="M80.4,75.7c-0.1,0.4-0.3,0.9-0.3,0.9h0c0,0-0.1-0.5-0.3-0.9l-2.2-6.2h-0.7l-2.2,6.2
				c-0.1,0.4-0.3,0.9-0.3,0.9h0c0,0-0.1-0.5-0.3-0.9L72,69.4h-0.7l2.8,8h0.7l2.2-6.2c0.1-0.4,0.3-0.9,0.3-0.9h0c0,0,0.1,0.5,0.3,0.9
				l2.2,6.2h0.7l2.8-8h-0.7L80.4,75.7z"/>
			<path class="st0" d="M94.6,71.6L94.6,71.6c0,0,0-0.3,0-0.7v-1.5H94v8h0.7V74c0-0.5,0.1-1.1,0.2-1.7c0.4-1.2,1.1-2.2,2.4-2.2
				c0.2,0,0.4,0,0.4,0v-0.7c0,0-0.2,0-0.5,0C95.9,69.4,95,70.4,94.6,71.6z"/>
			<path class="st0" d="M192.2,73.3c0,1.9-1.3,3.6-3.3,3.6c-1.8,0-2-1.3-2-2.7v-4.8h-0.7v5.1c0,2,0.7,3.1,2.6,3.1
				c1.9,0,3-1.5,3.3-2.2h0c0,0-0.1,0.3-0.1,0.7v1.4h0.7v-8h-0.7V73.3z"/>
			<path class="st0" d="M199.3,69.2c-2.2,0-2.9,1.8-2.9,1.8h0c0,0,0-0.3,0-0.6v-1h-0.7v11.2h0.7v-4.1c0-0.4-0.1-0.7-0.1-0.7h0
				c0,0,0.7,1.8,2.8,1.8c2.1,0,3.5-1.6,3.5-4.2C202.7,70.9,201.4,69.2,199.3,69.2z M199.2,76.9c-1.8,0-2.8-1.7-2.8-3.5
				c0-2.5,1.4-3.5,2.8-3.5c1.6,0,2.8,1.4,2.8,3.5C202,75.6,200.7,76.9,199.2,76.9z"/>
			<path class="st0" d="M220.9,72.9c0-1.9-1.1-3.6-3.3-3.6c-2,0-3.9,1.5-3.9,4.2c0,2.5,1.9,4.2,4.1,4.2c1.7,0,2.8-1.1,2.8-1.1
				l-0.4-0.6c0,0-0.9,1-2.5,1c-1.9,0-3.4-1.3-3.4-3.6h6.4C220.9,73.3,220.9,73,220.9,72.9z M214.6,72.7c0.3-1.9,1.6-2.8,3.1-2.8
				c1.3,0,2.5,0.9,2.6,2.8H214.6z"/>
			<path class="st0" d="M181.6,71.6L181.6,71.6c0,0,0-0.3,0-0.7v-1.5h-0.7v8h0.7V74c0-0.5,0.1-1.1,0.2-1.7c0.4-1.2,1.1-2.2,2.4-2.2
				c0.2,0,0.4,0,0.4,0v-0.7c0,0-0.2,0-0.5,0C182.8,69.4,182,70.4,181.6,71.6z"/>
			<path class="st0" d="M118.6,69.4h-0.7v1.6h-2.6c-2.4,0-2.7-1.5-2.7-2.2c0-1.3,1.1-2.1,2.5-2.1c0.4,0,1,0.1,1,0.1l0.2-0.6
				c0,0-0.7-0.2-1.2-0.2c-2.1,0-3.3,1.2-3.3,2.8c0,2,1.6,2.5,1.6,2.5v0c-1.4,0.4-2.1,1.7-2.1,3c0,1.8,1.5,3.2,3.7,3.2
				c2.1,0,3.6-1.3,3.6-4.1v-1.8h1.5v-0.6h-1.5V69.4z M117.9,73.5c0,2.5-1.2,3.4-2.9,3.4c-1.9,0-3-1.2-3-2.6c0-1.5,1-2.6,3.3-2.6h2.6
				V73.5z"/>
			<path class="st0" d="M208.6,69.2c-2.2,0-2.9,1.8-2.9,1.8h0c0,0,0-0.3,0-0.6v-1H205v11.2h0.7v-4.1c0-0.4-0.1-0.7-0.1-0.7h0
				c0,0,0.7,1.8,2.8,1.8c2.1,0,3.5-1.6,3.5-4.2C212,70.9,210.7,69.2,208.6,69.2z M208.5,76.9c-1.8,0-2.8-1.7-2.8-3.5
				c0-2.5,1.4-3.5,2.8-3.5c1.6,0,2.8,1.4,2.8,3.5C211.3,75.6,210,76.9,208.5,76.9z"/>
			<path class="st0" d="M139,69.2c-2.3,0-4.1,1.8-4.1,4.1c0,2.4,1.9,4.2,4.1,4.2c2.3,0,4.1-1.8,4.1-4.2
				C143.1,71,141.3,69.2,139,69.2z M139,76.9c-1.9,0-3.4-1.5-3.4-3.6c0-2,1.5-3.5,3.4-3.5s3.4,1.5,3.4,3.5
				C142.4,75.4,140.9,76.9,139,76.9z"/>
			<path class="st0" d="M127.3,68.9c0-1.1,1-2.2,2.6-2.2c1.5,0,2.4,1,2.4,1l0.4-0.6c0,0-1-1-2.8-1c-2,0-3.3,1.4-3.3,2.9
				c0,3.5,5.7,2.6,5.7,5.8c0,1.3-1.1,2.2-2.5,2.2c-1.9,0-3-1.2-3-1.2l-0.5,0.5c0,0,1.2,1.4,3.4,1.4c2,0,3.2-1.3,3.2-2.9
				C133.1,71,127.3,71.9,127.3,68.9z"/>
			<path class="st0" d="M175.6,73h2v2.2c0,0-1.4,1.8-3.8,1.8c-2.8,0-4.8-2.2-4.8-5.1c0-2.9,2-5.1,4.8-5.1c2.1,0,3.5,1.1,3.5,1.1
				l0.4-0.5c0,0-1.4-1.3-3.9-1.3c-3.2,0-5.6,2.6-5.6,5.8c0,3.2,2.4,5.8,5.5,5.8c2.5,0,3.8-1.6,3.8-1.6h0c0,0,0,0.2,0,0.5v1h0.7v-5.1
				h-2.7V73z"/>
			<path class="st0" d="M158.9,69.2c-2,0-3.1,1.5-3.4,2.2h0c0,0,0.1-0.3,0.1-0.7v-1.4h-0.7v8h0.7v-3.9c0-0.4,0-0.7,0.1-1.1
				c0.4-1.5,1.7-2.5,3.2-2.5c1.8,0,2,1.3,2,2.7v4.8h0.7v-5.1C161.5,70.5,160.9,69.2,158.9,69.2z"/>
			<path class="st0" d="M149.4,69.2c-2,0-3.1,1.5-3.4,2.2h0c0,0,0.1-0.3,0.1-0.7v-4.6h-0.7v11.2h0.7v-3.9c0-0.4,0-0.7,0.1-1.1
				c0.4-1.5,1.7-2.5,3.2-2.5c1.8,0,2,1.3,2,2.7v4.8h0.7v-5.1C152.1,70.5,151.5,69.2,149.4,69.2z"/>
		</g>
		<g>
			<path d="M136,2h-16.3v55.4H136c13,0,13.6-13.2,13.6-27.7C149.6,15.2,148.9,2,136,2z M133.2,47.1h-2.2V12.4h2.2
				c4.3,0,4.9,2.3,4.9,17.3C138,44.7,137.5,47.1,133.2,47.1z"/>
			<polygon points="103,2 91.8,2 91.8,57.5 116.8,57.5 116.8,45.7 103,45.7 			"/>
			<path d="M72.9,34.6h13.4V23.3H72.9v-9.5h14.3V2H64.3v0H47c9.8,5.4,16.5,15.7,16.5,27.6c0,12.2-7,22.6-17.1,27.9h17.8v0h23.4V45.7
				H72.9V34.6z"/>
			<polygon points="219.7,2 215.4,21.4 215.3,21.4 211.1,2 198.8,2 209.8,35.6 209.8,57.5 221,57.5 221,35.6 232,2 			"/>
			<path d="M180,15.6c0-2.5,1.1-4.9,3.5-4.9c2.2,0,3.2,2.7,3.2,6V18h10.5c0-11.9-4.2-17.1-13.9-17.1c-9.5,0-14.1,6.1-14.1,17.3
				c0,19.7,17.6,14.2,17.6,25.2c0,3-1.3,5.4-3.6,5.4c-2.2,0-3.7-1.7-3.7-6.4V41h-10.8V43c0,11.5,5.2,15.6,14.5,15.6
				c9.9,0,15.2-5.3,15.2-17.1C198.4,21.2,180,26.6,180,15.6z"/>
			<rect x="153.9" y="2" width="11.2" height="55.4"/>
		</g>
	</g>
</g>
</svg>
